<?xml version="1.0" encoding="utf-8"?>
<!-- Generator: Adobe Illustrator 26.0.2, SVG Export Plug-In . SVG Version: 6.00 Build 0)  -->
<svg version="1.1" id="Layer_1" xmlns="http://www.w3.org/2000/svg" xmlns:xlink="http://www.w3.org/1999/xlink" x="0px" y="0px"
	 viewBox="0 0 255 255" style="enable-background:new 0 0 255 255;" xml:space="preserve">
<style type="text/css">
	.st0{fill:#0A0A08;}
</style>
<g>
	<path class="st0" d="M127.63,22.82c34.18,0,38.23,0.13,51.72,0.75c12.48,0.57,19.26,2.65,23.77,4.41
		c5.97,2.32,10.24,5.1,14.72,9.58s7.25,8.74,9.57,14.72c1.75,4.51,3.84,11.29,4.41,23.77c0.62,13.5,0.75,17.55,0.75,51.72
		s-0.13,38.23-0.75,51.72c-0.57,12.48-2.65,19.26-4.41,23.77c-2.32,5.97-5.1,10.24-9.57,14.72c-4.48,4.48-8.74,7.25-14.72,9.57
		c-4.51,1.75-11.29,3.84-23.77,4.41c-13.5,0.62-17.54,0.75-51.72,0.75s-38.23-0.13-51.72-0.75c-12.48-0.57-19.26-2.65-23.77-4.41
		c-5.97-2.32-10.24-5.1-14.72-9.57c-4.48-4.48-7.25-8.74-9.57-14.72c-1.75-4.51-3.84-11.29-4.41-23.77
		c-0.62-13.5-0.75-17.55-0.75-51.72s0.13-38.23,0.75-51.72c0.57-12.48,2.65-19.26,4.41-23.77c2.32-5.97,5.1-10.24,9.57-14.72
		s8.74-7.25,14.72-9.58c4.51-1.75,11.29-3.84,23.77-4.41C89.41,22.95,93.46,22.82,127.63,22.82 M127.63-0.24
		c-34.76,0-39.12,0.15-52.77,0.77C61.24,1.15,51.93,3.31,43.79,6.48c-8.42,3.27-15.56,7.65-22.67,14.76S9.63,35.49,6.35,43.91
		c-3.16,8.14-5.33,17.45-5.95,31.07c-0.62,13.65-0.77,18.01-0.77,52.77s0.15,39.12,0.77,52.77c0.62,13.62,2.79,22.93,5.95,31.07
		c3.27,8.42,7.65,15.56,14.76,22.67c7.12,7.12,14.25,11.49,22.67,14.76c8.14,3.16,17.45,5.33,31.07,5.95
		c13.65,0.62,18.01,0.77,52.77,0.77s39.12-0.15,52.77-0.77c13.62-0.62,22.93-2.79,31.07-5.95c8.42-3.27,15.56-7.65,22.67-14.76
		c7.12-7.12,11.49-14.25,14.76-22.67c3.16-8.14,5.33-17.45,5.95-31.07c0.62-13.65,0.77-18.01,0.77-52.77s-0.15-39.12-0.77-52.77
		c-0.62-13.62-2.79-22.93-5.95-31.07c-3.27-8.42-7.65-15.56-14.76-22.67S219.9,9.75,211.48,6.48c-8.14-3.16-17.45-5.33-31.07-5.95
		C166.76-0.1,162.4-0.24,127.63-0.24z M127.63,62.03c-36.3,0-65.73,29.43-65.73,65.73s29.43,65.73,65.73,65.73
		s65.73-29.43,65.73-65.73S163.94,62.03,127.63,62.03z M127.63,170.42c-23.56,0-42.67-19.1-42.67-42.67s19.1-42.67,42.67-42.67
		s42.67,19.1,42.67,42.67S151.2,170.42,127.63,170.42z M211.32,59.43c0,8.48-6.88,15.36-15.36,15.36s-15.36-6.88-15.36-15.36
		s6.88-15.36,15.36-15.36S211.32,50.95,211.32,59.43z"/>
</g>
</svg>
