<?xml version="1.0" encoding="utf-8"?>
<!-- Generator: Adobe Illustrator 26.0.2, SVG Export Plug-In . SVG Version: 6.00 Build 0)  -->
<svg version="1.1" id="instagram-logo" xmlns="http://www.w3.org/2000/svg" xmlns:xlink="http://www.w3.org/1999/xlink" x="0px"
	 y="0px" viewBox="0 0 70 70" style="enable-background:new 0 0 70 70;" xml:space="preserve">
<style type="text/css">
	.st0{fill:url(#SVGID_1_);}
	.st1{fill:url(#SVGID_00000102538050124139692610000009887910871194038442_);}
	.st2{fill:url(#SVGID_00000087408853330816961500000010586579110950900103_);}
</style>
<g>
	
		<linearGradient id="SVGID_1_" gradientUnits="userSpaceOnUse" x1="5.9844" y1="35.0065" x2="64.0429" y2="35.0065" gradientTransform="matrix(1 0 0 -1 0 70)">
		<stop  offset="0.0406" style="stop-color:#B9882C"/>
		<stop  offset="0.7496" style="stop-color:#EEA835"/>
		<stop  offset="1" style="stop-color:#BC892C"/>
	</linearGradient>
	<path class="st0" d="M64.04,35.86c-0.08,3.85-0.11,7.71-0.26,11.56c-0.13,3.3-0.86,6.47-2.69,9.28c-2.4,3.68-5.85,5.79-10.1,6.66
		c-2.45,0.5-4.95,0.55-7.44,0.57c-4.2,0.04-8.39,0.08-12.59,0.04c-3.25-0.03-6.5-0.04-9.74-0.31c-5.42-0.45-9.84-2.75-12.69-7.56
		C7.17,53.83,6.5,51.3,6.3,48.66c-0.5-6.72-0.25-13.45-0.27-20.18c-0.01-2.36,0.08-4.72,0.29-7.07c0.49-5.56,2.77-10.11,7.78-12.98
		c2.23-1.27,4.67-1.92,7.21-2.11c6.89-0.52,13.79-0.26,20.68-0.27c2.54,0,5.1,0.1,7.63,0.4c7.25,0.86,12.33,5.49,13.75,12.51
		c0.47,2.33,0.55,4.68,0.57,7.04c0.03,3.29,0.01,6.58,0.01,9.86C63.97,35.86,64.01,35.86,64.04,35.86z M34.17,58.83
		c0-0.03,0-0.07,0-0.1c2.14,0,4.27,0.03,6.4-0.01c2.55-0.05,5.1-0.11,7.64-0.25c1.74-0.1,3.43-0.53,4.97-1.38
		c3.45-1.9,4.97-5.02,5.26-8.77c0.23-3.01,0.27-6.04,0.3-9.06c0.04-3.99,0.03-7.98-0.05-11.96c-0.05-2.35-0.15-4.73-0.48-7.05
		c-0.63-4.44-3.79-7.55-8.19-8.4c-2.54-0.49-5.11-0.49-7.67-0.52c-4.88-0.07-9.75-0.06-14.63,0c-2.36,0.03-4.72,0.15-7.06,0.44
		c-4.9,0.6-8.29,3.95-8.92,8.83c-0.3,2.28-0.42,4.59-0.44,6.89c-0.05,5.46-0.04,10.92,0.04,16.39c0.03,2.09,0.17,4.2,0.53,6.25
		c0.59,3.38,2.47,5.91,5.67,7.34c1.77,0.79,3.65,1.08,5.56,1.14C26.8,58.71,30.48,58.76,34.17,58.83z"/>
	
		<linearGradient id="SVGID_00000052092151069331244830000014036021123046173595_" gradientUnits="userSpaceOnUse" x1="20.0929" y1="34.9883" x2="49.9074" y2="34.9883" gradientTransform="matrix(1 0 0 -1 0 70)">
		<stop  offset="0.0406" style="stop-color:#B9882C"/>
		<stop  offset="0.7496" style="stop-color:#EEA835"/>
		<stop  offset="1" style="stop-color:#BC892C"/>
	</linearGradient>
	<path style="fill:url(#SVGID_00000052092151069331244830000014036021123046173595_);" d="M49.91,35.02
		c0,8.24-6.67,14.92-14.9,14.91c-8.58-0.01-15-7.09-14.91-15.08c0.09-8.14,6.93-14.9,15.25-14.74
		C43.29,20.25,49.91,26.91,49.91,35.02z M44.64,35.03c0-5.34-4.31-9.67-9.63-9.67c-5.3,0-9.66,4.36-9.66,9.66
		c0,5.26,4.35,9.63,9.57,9.63C40.33,44.66,44.64,40.39,44.64,35.03z"/>
	
		<linearGradient id="SVGID_00000119109275130605438690000002601759387668093869_" gradientUnits="userSpaceOnUse" x1="47.0052" y1="50.4788" x2="53.9499" y2="50.4788" gradientTransform="matrix(1 0 0 -1 0 70)">
		<stop  offset="0.0406" style="stop-color:#B9882C"/>
		<stop  offset="0.7496" style="stop-color:#EEA835"/>
		<stop  offset="1" style="stop-color:#BC892C"/>
	</linearGradient>
	<path style="fill:url(#SVGID_00000119109275130605438690000002601759387668093869_);" d="M50.44,22.99
		c-1.96-0.01-3.46-1.54-3.44-3.51c0.02-1.95,1.56-3.46,3.52-3.44c1.96,0.02,3.44,1.54,3.43,3.52C53.94,21.54,52.44,23,50.44,22.99z"
		/>
</g>
</svg>
