<?xml version="1.0" encoding="utf-8"?>
<!-- Generator: Adobe Illustrator 26.0.2, SVG Export Plug-In . SVG Version: 6.00 Build 0)  -->
<svg version="1.1" xmlns="http://www.w3.org/2000/svg" xmlns:xlink="http://www.w3.org/1999/xlink" x="0px" y="0px"
	 viewBox="0 0 610.23 788.32" style="enable-background:new 0 0 610.23 788.32;" xml:space="preserve">
<style type="text/css">
	.st0{opacity:0.11;fill:#AED8C5;}
	.st1{opacity:0.5;fill:#FBC5BC;}
	.st2{fill:url(#SVGID_1_);}
	.st3{fill:url(#SVGID_00000048485134391489935120000000693459343148461187_);}
	.st4{fill:url(#SVGID_00000170270082931582453680000007168778135389169850_);}
	.st5{fill:url(#SVGID_00000054261416360863280520000014448954020784372647_);}
	.st6{fill:url(#SVGID_00000179633131412308769020000016745804981984636314_);}
	.st7{fill:url(#SVGID_00000062876282174797422520000006587170543670173578_);}
	.st8{fill:url(#SVGID_00000183215673606185026630000016631247592509837458_);}
	.st9{fill:#E9B7B3;}
	.st10{opacity:0.5;fill:#FCD3D1;}
	.st11{opacity:0.5;fill:#CBC2DD;}
	.st12{opacity:0.5;fill:#FBE9AF;}
	.st13{fill:url(#SVGID_00000066488374982128601080000008099271585157524140_);}
	.st14{fill:url(#SVGID_00000009559958459316177130000016653275546193422978_);}
	.st15{fill:url(#SVGID_00000030449354492919415110000018022877338995471001_);}
	.st16{fill:url(#SVGID_00000016783499088013136370000004423372288289757368_);}
	.st17{fill:url(#SVGID_00000176008495880429041250000005991915016414940594_);}
	.st18{fill:none;}
	.st19{fill:#E4A6CB;}
	.st20{font-family:'UrbaneRounded-DemiBold';}
	.st21{font-size:36px;}
	.st22{fill:#B9882C;}
	.st23{font-size:15px;}
	.st24{fill:none;stroke:#000000;stroke-miterlimit:10;}
</style>
<g id="Background">
	<rect x="-1.81" y="1.4" class="st0" width="612" height="792"/>
</g>
<g id="Assets">
	<g>
		<path class="st1" d="M431.91,89.08c14.18-0.1,14.17-0.1,14.18,14.24c0.02,45.4,0.05,90.79,0.08,136.19
			c0,8.48-3.95,12.48-12.28,12.48c-82.63-0.01-165.26-0.01-247.88-0.01c-9.51,0-9.51,0-9.5-9.21c0-1.67,0.01-3.35,0.01-5.02
			c1.48-0.07,2.97-0.2,4.45-0.2c81.65-0.01,163.3-0.04,244.96,0.1c4.57,0.01,5.92-1.06,5.87-5.78c-0.25-25.84-0.16-51.69-0.12-77.54
			C431.72,132.58,431.83,110.83,431.91,89.08z"/>
		<linearGradient id="SVGID_1_" gradientUnits="userSpaceOnUse" x1="162.1975" y1="155.9716" x2="431.9131" y2="155.9716">
			<stop  offset="0.0406" style="stop-color:#B9882C"/>
			<stop  offset="0.7496" style="stop-color:#EEA835"/>
			<stop  offset="1" style="stop-color:#BC892C"/>
		</linearGradient>
		<path class="st2" d="M431.91,89.08c-0.08,21.75-0.19,43.5-0.22,65.25c-0.04,25.85-0.13,51.69,0.12,77.54
			c0.05,4.72-1.3,5.79-5.87,5.78c-81.65-0.14-163.3-0.11-244.96-0.1c-1.48,0-2.97,0.13-4.45,0.2c-1.3-0.08-2.59-0.22-3.89-0.23
			c-10.34-0.09-10.34-0.09-10.34-10.68c0-48.7,0.07-97.39-0.1-146.09c-0.02-4.92,1.02-6.56,6.34-6.54
			c86.08,0.18,172.17,0.15,258.25,0.03c3.84-0.01,5.33,0.83,4.95,4.83C431.44,82.37,431.83,85.74,431.91,89.08z M176.5,231.9
			c0.74,0.06,1.48,0.17,2.22,0.17c80.87,0,161.74-0.04,242.62,0.12c4.54,0.01,5.01-1.56,5-5.39c-0.13-36.62-0.05-73.23-0.08-109.85
			c-0.01-9.28-0.2-18.57-0.3-27.85c1.12-9.62,1.12-9.62-8.1-9.62c-81.46,0-162.91,0.04-244.37-0.09c-4.52-0.01-5.97,0.99-5.95,5.76
			c0.19,46.11,0.11,92.22,0.11,138.34C167.65,232.38,167.65,232.38,176.5,231.9z"/>
		<path class="st1" d="M425.95,89.09c0.11,9.28,0.29,18.57,0.3,27.85c0.03,36.62-0.04,73.23,0.08,109.85c0.01,3.83-0.46,5.4-5,5.39
			c-80.87-0.16-161.74-0.11-242.62-0.12c-0.74,0-1.48-0.11-2.22-0.17c0.01-45.57,0.11-91.14-0.1-136.71
			c-0.03-5.72,1.71-7.33,7.32-7.17c13.23,0.38,26.48,0.16,39.71,0.09c2.85-0.02,5.57,0.31,8.18,1.43
			c-6.04,12.91-12.02,25.86-18.16,38.72c-1.59,3.34-3.72,6.43-6.53,8.95c-2.04,1.82-4.39,3-7.13,2.02c-2.9-1.04-3.4-3.66-3.58-6.36
			c-0.24-3.57,0.59-6.97,1.47-10.39c0.28-1.08,1.45-2.56-0.45-3.33c-1.17-0.48-2.2,0.27-2.99,1.03c-3.94,3.84-4.99,8.59-3.79,13.79
			c1.22,5.29,4.72,8.28,10.13,8.87c10.15,1.1,15.99-5.01,20.26-12.84c7.18-13.18,13.7-26.71,18.8-40.86
			C301.75,89.12,363.85,89.1,425.95,89.09z M278.8,102.24c-5.58,8.17-9.72,16.64-13.6,25.25c-1.36,3-2.42,6.2-4.83,8.57
			c-1.39,1.37-3.26,3.58-5.09,1.98c-1.55-1.35-2.23-3.55-0.53-6.34c3.49-5.75,6.07-12.06,9.01-18.14c1.26-2.6,1.49-5.34,1.06-8.16
			c-0.18-1.13-0.6-2.24-1.77-2.54c-1.1-0.29-1.55,0.8-2.09,1.53c-0.65,0.88-1.24,1.8-1.9,2.77c-4.16-5.42-7.08-6.12-12.72-2.44
			c-8.91,5.83-14.34,14.28-17.14,24.42c-0.48,1.74-0.37,3.72-0.18,5.55c0.75,7.03,6.42,9.9,12.46,6.23c2.13-1.3,3.97-3.08,6-4.7
			c2.67,6.47,6.44,8.04,12.39,5.5c1.11-0.47,2.25-2.22,3.43-1c3.31,3.41,3.45-0.17,4.2-1.83c3.44-7.62,6.7-15.36,11.87-22.01
			c2.96-3.81,6.72-6.8,11.48-8.28c-2.27,5.76-4.85,11.09-7.65,16.31c-2.89,5.38-3.41,12.81-0.4,15.57c4.57,4.2,9.27,2.66,13.66-0.58
			c1.32-0.98,2.41-1.14,3.17,0.38c1.56,3.13,4.34,2.21,6.76,2c1.48-0.13,3.49-1.92,4.05,0.39c0.43,1.77-2.3,1.58-3.51,2.45
			c-6.93,4.96-13.92,9.88-15.91,18.95c-0.99,4.55,1.37,11.4,4.57,12.26c4.74,1.27,7.11-2.44,9.42-5.48
			c5.11-6.73,8.01-14.63,11.27-22.33c0.79-1.85,1.24-3.81,3.47-4.74c5.47-2.27,10.32-5.56,14.37-10.15
			c5.12,9.71,10.64,11.57,19.7,6.83c2.23-1.16,4.26-2.84,6.08-4.59c1.71-1.65,2.7-2.16,4.01,0.39c3,5.86,8.18,7.43,14.18,6.05
			c7.48-1.73,13.24-5.81,15.91-13.39c0.32-0.91,0.59-1.95-0.33-2.52c-1.18-0.73-2.06-0.06-2.71,1.05
			c-2.48,4.24-6.25,7.34-9.96,10.32c-2.86,2.29-6.53,3.01-9.71,0.16c-2.19-1.97-2.67-9.74-1.03-11.73c0.83-1.01,1.53-0.36,2.4-0.09
			c9.1,2.75,13.31,0.64,17.24-8.56c2.38-5.58,1.44-9.26-2.99-12.85c-4.42-3.57-8.41-2.01-12.17,0.9
			c-5.63,4.35-9.6,10.16-11.19,16.94c-1.89,8.08-6.51,13.21-13.77,16.6c-4.59,2.14-6.77,1.35-8.24-3.4
			c-2.64-8.54,5.55-24.9,14.79-28.52c-1.12,4.03-2.33,7.64-3.08,11.35c-0.46,2.3,0.32,4.91,2.77,5.46c2.47,0.55,2.34-2.33,3.16-3.84
			c0.62-1.14,1.03-2.39,1.56-3.58c2.24-4.93,1.28-9.04-3.16-12.25c-4.41-3.19-8.22-1.11-11.67,1.66
			c-6.03,4.84-9.31,11.41-11.42,18.73c-1.95,6.79-7.2,10.5-13.48,13.24c2.83-7.67,6.19-14.99,9.52-22.32
			c1.31-2.87,2.78-5.75,2.3-9.04c-0.2-1.4-0.34-3.27-2.11-3.53c-1.5-0.22-2.03,1.42-2.6,2.52c-2.92,5.61-5.71,11.28-8.68,16.86
			c-2.7,5.09-5.34,10.25-9.63,14.27c-1.2,1.13-2.6,2.66-4.33,1.77c-2.09-1.08-1.41-3.17-0.9-4.99c1.62-5.78,4.4-11.03,7.32-16.23
			c1.82-3.24,3.73-6.49,3.24-10.45c-0.18-1.5-0.51-3.14-2.23-3.48c-1.58-0.31-2.08,1.29-2.75,2.34
			c-4.84,7.55-8.82,15.54-11.37,24.13c-1.01,3.39-2.98,5.93-5.5,8.17c-1.28,1.14-2.85,2.06-4.56,1.04
			c-1.69-1.01-1.64-2.82-1.35-4.51c0.76-4.48,3.03-8.36,5.05-12.33c1.68-3.3,3.47-6.57,4.86-10c1.2-2.97,0.72-5.99-1.85-8.13
			c-2.8-2.33-5.32-0.4-7.56,1.21c-2.38,1.71-4.51,3.75-6.96,5.81C280.88,108.19,281.72,105.3,278.8,102.24z M414.82,182.23
			c-0.19-1.34-0.09-2.21-0.37-2.36c-4.28-2.26-5.11-5.58-3.31-9.86c0.19-0.46,0-1.11-0.12-1.65c-0.24-1.06-0.31-2.43-1.47-2.78
			c-1.35-0.41-1.88,0.96-2.42,1.86c-1.54,2.55-2.77,5.3-4.5,7.71c-3.09,4.31-8,2.49-11.82,2.26c-3.49-0.21,0.35-3.41-0.31-5.36
			c-0.61-1.8,0.82-4.72-1.47-5.43c-2.06-0.64-2.49,2.24-3.52,3.65c-0.87,1.2-1.74,2.46-2.29,3.82c-1.35,3.35-3.51,4.98-7.28,4.41
			c-1.11-0.17-2.91-0.74-3.43,0.87c-0.59,1.83,1.16,2.82,2.42,3.2c2.87,0.87,2.76,2.14,1.46,4.4c-5.61,9.75-7.76,21.53-17.55,28.84
			c-3.11,2.33-6.36,5.29-10,3.95c-3.99-1.46-4.58-5.84-4-9.9c0.22-1.54,0-3.31,1.39-4.5c9.14,3.83,15.62,0.79,19.34-8.67
			c2.01-5.11,0.79-8.94-3.46-12.24c-4.26-3.3-8.1-1.84-11.75,0.82c-5.62,4.09-9.09,9.82-11.23,16.29c-1.78,5.41-5.1,9.78-8.87,13.8
			c-3.47,3.7-7.03,2.97-9.35-1.5c-3.58-6.88-2.99-10.29,2.99-15.46c3.1-2.67,6.4-5.12,9.65-7.61c1.79-1.37,3.48-2.83,4.58-4.82
			c0.63-1.14,1.29-2.49,0.24-3.62c-1.14-1.23-2.44-0.37-3.52,0.31c-5.45,3.45-10.92,6.89-16.3,10.46
			c-7.95,5.29-9.48,10.61-5.81,19.44c3.75,9.01,12.88,11.26,20.57,5.2c1.69-1.33,2.59-3.61,4.89-4.24
			c5.16,12.07,12.78,12.37,28.44,1.21c5.45,10.34,7.86,10.43,20.22,0.77c4.84,7.19,8.4,8.55,14.27,5.44
			c6.71-3.56,10.59-10.75,8.28-16.22c-2.8,4.44-4.66,9.23-8.5,12.57c-1.68,1.46-3.47,3.2-5.92,1.8c-2.24-1.29-2.53-3.66-2.14-5.91
			c0.44-2.55,0.98-5.16,2.05-7.49c2.31-5.07,5.01-9.96,7.49-14.95C404.95,185.65,406.73,179.59,414.82,182.23z M270.38,214.71
			c2.58,5.64,6.69,8.88,12.47,7.6c3.53-0.78,7.52-1.34,10.3-4.4c1.27-1.4,2.95-2.58,4.15,0.19c1.73,4,2.99,2.14,4.01-0.35
			c7.16-17.38,16.58-33.58,25.79-49.9c1.46-2.59,2.82-5.28,2.88-8.35c0.03-1.81,0.63-4.21-1.3-5.06c-2.38-1.04-3,1.68-3.88,3.05
			c-9.26,14.42-17.33,29.5-24.07,45.25c-2.65,6.2-6.96,10.89-12.18,14.8c-5.12,3.84-9.3,3.32-11.04-0.84
			c-3.56-8.55,4.68-26.03,14.04-29.28c0.15,4.11-3.16,7.31-2.83,11.21c0.17,2-0.24,4.84,2.74,5.35c2.76,0.46,2.34-2.38,3.2-3.78
			c0.86-1.41,1.31-3.07,1.95-4.61c1.84-4.4,0.56-7.92-2.94-10.92c-3.69-3.16-7.32-2.12-10.74,0.24
			c-6.94,4.78-10.93,11.6-12.65,19.69c-0.97,4.56-3.24,8.27-6.26,11.62c-1.62,1.8-3.68,3.93-6.15,2.74
			c-2.92-1.41-1.33-4.36-0.71-6.49c1.71-5.92,5.07-11.14,7.64-16.7c1.4-3.03,2.8-6.12,1.58-9.62c-0.79-2.28-2.04-3.54-3.67-0.88
			c-5.35,8.73-10.63,17.6-12.18,27.91c-1.1,7.31,4.33,11.11,11.33,8.5C265.27,220.41,267.58,217.74,270.38,214.71z M215.17,222.19
			c2.52-5.93,4.86-11.56,7.33-17.13c0.54-1.22,0.68-3.01,2.84-2.83c11.26,0.93,19.44-5.14,26.88-12.32
			c4.52-4.37,7.15-9.96,7.12-16.45c-0.05-10.21-6.35-14.99-16.23-12.31c-4.84,1.32-9.58,2.96-14.42,4.25
			c-3.95,1.05-2.73,3.38-0.67,4.39c4.21,2.07,2.54,4.18,1.01,6.86c-6.07,10.67-11.3,21.75-15.27,33.37
			C212.42,213.92,210.82,218.19,215.17,222.19z M273.14,179.01c-0.31-2.8-1.29-5.51-4.44-5.42c-2.34,0.06-2.91,2.48-2.83,4.7
			c0.1,2.63,1.04,5.16,3.76,5.41C272.46,183.96,272.93,181.32,273.14,179.01z"/>
		
			<linearGradient id="SVGID_00000114064426747979054230000005825187209711306157_" gradientUnits="userSpaceOnUse" x1="228.8621" y1="139.4073" x2="394.3281" y2="139.4073">
			<stop  offset="0.0406" style="stop-color:#B9882C"/>
			<stop  offset="0.7496" style="stop-color:#EEA835"/>
			<stop  offset="1" style="stop-color:#BC892C"/>
		</linearGradient>
		<path style="fill:url(#SVGID_00000114064426747979054230000005825187209711306157_);" d="M278.8,102.24
			c2.92,3.06,2.08,5.95,2.2,8.88c2.44-2.06,4.58-4.1,6.96-5.81c2.24-1.61,4.76-3.54,7.56-1.21c2.57,2.13,3.05,5.16,1.85,8.13
			c-1.39,3.43-3.18,6.7-4.86,10c-2.02,3.98-4.29,7.85-5.05,12.33c-0.29,1.69-0.34,3.5,1.35,4.51c1.71,1.02,3.28,0.1,4.56-1.04
			c2.52-2.24,4.49-4.78,5.5-8.17c2.56-8.6,6.54-16.58,11.37-24.13c0.67-1.05,1.17-2.65,2.75-2.34c1.72,0.33,2.04,1.98,2.23,3.48
			c0.49,3.96-1.42,7.21-3.24,10.45c-2.92,5.2-5.71,10.45-7.32,16.23c-0.51,1.82-1.19,3.91,0.9,4.99c1.73,0.89,3.13-0.64,4.33-1.77
			c4.28-4.03,6.92-9.19,9.63-14.27c2.97-5.58,5.76-11.26,8.68-16.86c0.58-1.1,1.1-2.75,2.6-2.52c1.77,0.26,1.91,2.13,2.11,3.53
			c0.48,3.29-1,6.17-2.3,9.04c-3.33,7.33-6.69,14.64-9.52,22.32c6.28-2.74,11.52-6.45,13.48-13.24c2.11-7.33,5.39-13.9,11.42-18.73
			c3.45-2.77,7.26-4.84,11.67-1.66c4.44,3.21,5.4,7.32,3.16,12.25c-0.54,1.19-0.95,2.44-1.56,3.58c-0.82,1.5-0.69,4.39-3.16,3.84
			c-2.45-0.55-3.23-3.16-2.77-5.46c0.75-3.71,1.96-7.32,3.08-11.35c-9.25,3.62-17.44,19.98-14.79,28.52
			c1.47,4.75,3.65,5.55,8.24,3.4c7.25-3.39,11.88-8.52,13.77-16.6c1.58-6.77,5.56-12.58,11.19-16.94c3.76-2.91,7.76-4.47,12.17-0.9
			c4.43,3.58,5.37,7.27,2.99,12.85c-3.93,9.2-8.15,11.31-17.24,8.56c-0.88-0.27-1.57-0.92-2.4,0.09c-1.64,1.99-1.16,9.76,1.03,11.73
			c3.18,2.86,6.85,2.14,9.71-0.16c3.72-2.98,7.48-6.08,9.96-10.32c0.65-1.1,1.53-1.78,2.71-1.05c0.93,0.57,0.65,1.61,0.33,2.52
			c-2.67,7.58-8.44,11.66-15.91,13.39c-6.01,1.39-11.18-0.19-14.18-6.05c-1.31-2.55-2.3-2.04-4.01-0.39
			c-1.82,1.75-3.85,3.43-6.08,4.59c-9.06,4.74-14.58,2.88-19.7-6.83c-4.05,4.58-8.9,7.87-14.37,10.15
			c-2.23,0.93-2.68,2.88-3.47,4.74c-3.26,7.69-6.15,15.6-11.27,22.33c-2.31,3.04-4.69,6.75-9.42,5.48
			c-3.19-0.86-5.56-7.71-4.57-12.26c1.98-9.07,8.98-13.99,15.91-18.95c1.2-0.86,3.94-0.68,3.51-2.45c-0.56-2.31-2.56-0.52-4.05-0.39
			c-2.42,0.21-5.2,1.13-6.76-2c-0.76-1.52-1.85-1.36-3.17-0.38c-4.39,3.24-9.08,4.79-13.66,0.58c-3.01-2.77-2.48-10.2,0.4-15.57
			c2.8-5.22,5.38-10.55,7.65-16.31c-4.76,1.48-8.52,4.47-11.48,8.28c-5.17,6.65-8.43,14.39-11.87,22.01
			c-0.75,1.65-0.89,5.24-4.2,1.83c-1.18-1.22-2.32,0.53-3.43,1c-5.95,2.54-9.71,0.97-12.39-5.5c-2.04,1.61-3.87,3.4-6,4.7
			c-6.04,3.67-11.72,0.81-12.46-6.23c-0.19-1.83-0.3-3.81,0.18-5.55c2.8-10.14,8.23-18.59,17.14-24.42
			c5.64-3.69,8.55-2.98,12.72,2.44c0.67-0.97,1.26-1.89,1.9-2.77c0.53-0.72,0.99-1.81,2.09-1.53c1.17,0.31,1.6,1.41,1.77,2.54
			c0.44,2.82,0.2,5.56-1.06,8.16c-2.94,6.08-5.52,12.39-9.01,18.14c-1.7,2.8-1.02,4.99,0.53,6.34c1.83,1.6,3.7-0.61,5.09-1.98
			c2.41-2.37,3.47-5.56,4.83-8.57C269.08,118.88,273.22,110.41,278.8,102.24z M307.21,150.35c-7.09,4.84-11.3,11.27-11.35,20.02
			c5.93-5.31,9.36-12.11,11.98-19.39c0.11-0.41,0.43-1.09,0.31-1.18C307.6,149.4,307.38,149.89,307.21,150.35z M235.64,133.87
			c0.03,2.52-0.29,4.23,1.44,4.9c1.57,0.61,2.96-0.4,3.97-1.41c7.24-7.25,11.74-16.07,14.43-25.86c0.29-1.06,0.38-2.31-0.64-3.07
			c-1.26-0.93-2.49-0.33-3.55,0.5C242.77,115.62,237.62,124.32,235.64,133.87z M383.8,107.38c-0.79,0.49-1.96,1.06-2.96,1.84
			c-3.41,2.66-5.81,6.15-7.82,9.92c-0.57,1.07-1.68,2.27-0.28,3.43c1.11,0.92,2.46,0.57,3.71,0.13c3.24-1.15,9.34-9.71,9.36-13.14
			C385.8,108.46,385.92,107.21,383.8,107.38z"/>
		
			<linearGradient id="SVGID_00000077287261660928210890000014973466422963062433_" gradientUnits="userSpaceOnUse" x1="310.8465" y1="194.1956" x2="414.8204" y2="194.1956">
			<stop  offset="0.0406" style="stop-color:#B9882C"/>
			<stop  offset="0.7496" style="stop-color:#EEA835"/>
			<stop  offset="1" style="stop-color:#BC892C"/>
		</linearGradient>
		<path style="fill:url(#SVGID_00000077287261660928210890000014973466422963062433_);" d="M414.82,182.23
			c-8.09-2.64-9.88,3.41-12.42,8.53c-2.48,4.99-5.18,9.88-7.49,14.95c-1.06,2.33-1.61,4.95-2.05,7.49c-0.39,2.25-0.1,4.63,2.14,5.91
			c2.45,1.4,4.24-0.33,5.92-1.8c3.84-3.34,5.7-8.13,8.5-12.57c2.31,5.47-1.58,12.66-8.28,16.22c-5.87,3.11-9.43,1.76-14.27-5.44
			c-12.36,9.67-14.77,9.58-20.22-0.77c-15.66,11.16-23.28,10.85-28.44-1.21c-2.31,0.63-3.2,2.9-4.89,4.24
			c-7.69,6.06-16.82,3.81-20.57-5.2c-3.68-8.84-2.14-14.15,5.81-19.44c5.37-3.58,10.84-7.01,16.3-10.46
			c1.08-0.68,2.38-1.54,3.52-0.31c1.05,1.13,0.39,2.49-0.24,3.62c-1.1,1.99-2.79,3.45-4.58,4.82c-3.25,2.49-6.55,4.93-9.65,7.61
			c-5.98,5.17-6.57,8.58-2.99,15.46c2.33,4.47,5.89,5.2,9.35,1.5c3.77-4.02,7.09-8.4,8.87-13.8c2.13-6.48,5.61-12.2,11.23-16.29
			c3.65-2.66,7.49-4.12,11.75-0.82c4.25,3.29,5.46,7.13,3.46,12.24c-3.72,9.47-10.2,12.51-19.34,8.67c-1.39,1.19-1.17,2.96-1.39,4.5
			c-0.58,4.06,0.01,8.43,4,9.9c3.65,1.34,6.89-1.63,10-3.95c9.79-7.32,11.94-19.09,17.55-28.84c1.3-2.27,1.41-3.53-1.46-4.4
			c-1.26-0.38-3.01-1.37-2.42-3.2c0.52-1.61,2.32-1.04,3.43-0.87c3.77,0.57,5.93-1.06,7.28-4.41c0.55-1.36,1.41-2.63,2.29-3.82
			c1.03-1.41,1.46-4.3,3.52-3.65c2.29,0.72,0.86,3.63,1.47,5.43c0.66,1.94-3.18,5.15,0.31,5.36c3.82,0.23,8.74,2.06,11.82-2.26
			c1.72-2.41,2.96-5.16,4.5-7.71c0.54-0.9,1.08-2.27,2.42-1.86c1.16,0.35,1.23,1.72,1.47,2.78c0.12,0.54,0.31,1.19,0.12,1.65
			c-1.8,4.28-0.97,7.6,3.31,9.86C414.73,180.02,414.63,180.89,414.82,182.23z M398.77,182.63c-5.18,0.76-10.67-1.37-12.85,1.87
			c-5.87,8.7-11.28,17.9-13.28,28.49c-0.44,2.32-0.19,5.24,2.06,6.34c2.37,1.15,4.73-0.67,6.27-2.5
			C389.29,206.93,391.93,194.23,398.77,182.63z M358.88,187.46c-0.56,0.33-1.57,0.8-2.42,1.47c-3.53,2.8-6.2,6.31-8.23,10.3
			c-0.54,1.07-1.64,2.33-0.14,3.4c1.13,0.81,2.5,0.49,3.73,0.03c3.12-1.15,9.22-9.95,9.3-13.28
			C361.15,188.12,360.99,187.14,358.88,187.46z"/>
		
			<linearGradient id="SVGID_00000169536523225474002040000010506901963192543676_" gradientUnits="userSpaceOnUse" x1="250.3873" y1="188.4009" x2="330.0828" y2="188.4009">
			<stop  offset="0.0406" style="stop-color:#B9882C"/>
			<stop  offset="0.7496" style="stop-color:#EEA835"/>
			<stop  offset="1" style="stop-color:#BC892C"/>
		</linearGradient>
		<path style="fill:url(#SVGID_00000169536523225474002040000010506901963192543676_);" d="M270.38,214.71
			c-2.8,3.03-5.11,5.7-8.52,6.97c-7,2.61-12.43-1.19-11.33-8.5c1.55-10.31,6.83-19.18,12.18-27.91c1.63-2.67,2.88-1.4,3.67,0.88
			c1.21,3.5-0.18,6.58-1.58,9.62c-2.57,5.56-5.93,10.78-7.64,16.7c-0.61,2.13-2.21,5.09,0.71,6.49c2.48,1.19,4.53-0.93,6.15-2.74
			c3.02-3.35,5.29-7.06,6.26-11.62c1.72-8.09,5.72-14.91,12.65-19.69c3.43-2.36,7.05-3.4,10.74-0.24c3.5,3,4.78,6.52,2.94,10.92
			c-0.65,1.54-1.09,3.2-1.95,4.61c-0.86,1.41-0.45,4.25-3.2,3.78c-2.99-0.5-2.57-3.34-2.74-5.35c-0.34-3.9,2.98-7.1,2.83-11.21
			c-9.37,3.25-17.61,20.73-14.04,29.28c1.73,4.16,5.92,4.67,11.04,0.84c5.21-3.91,9.53-8.6,12.18-14.8
			c6.74-15.75,14.8-30.83,24.07-45.25c0.88-1.37,1.5-4.09,3.88-3.05c1.93,0.85,1.33,3.25,1.3,5.06c-0.06,3.08-1.42,5.77-2.88,8.35
			c-9.21,16.32-18.63,32.53-25.79,49.9c-1.02,2.49-2.28,4.34-4.01,0.35c-1.2-2.77-2.87-1.59-4.15-0.19
			c-2.78,3.06-6.76,3.62-10.3,4.4C277.07,223.6,272.96,220.35,270.38,214.71z"/>
		
			<linearGradient id="SVGID_00000118393520476207314510000008365756087955358904_" gradientUnits="userSpaceOnUse" x1="212.328" y1="191.3089" x2="259.3379" y2="191.3089">
			<stop  offset="0.0406" style="stop-color:#B9882C"/>
			<stop  offset="0.7496" style="stop-color:#EEA835"/>
			<stop  offset="1" style="stop-color:#BC892C"/>
		</linearGradient>
		<path style="fill:url(#SVGID_00000118393520476207314510000008365756087955358904_);" d="M215.17,222.19
			c-4.35-4-2.75-8.27-1.42-12.17c3.97-11.61,9.21-22.7,15.27-33.37c1.53-2.69,3.2-4.8-1.01-6.86c-2.06-1.01-3.27-3.34,0.67-4.39
			c4.84-1.29,9.59-2.94,14.42-4.25c9.88-2.69,16.18,2.1,16.23,12.31c0.03,6.49-2.59,12.08-7.12,16.45
			c-7.44,7.19-15.62,13.25-26.88,12.32c-2.16-0.18-2.3,1.61-2.84,2.83C220.03,210.64,217.69,216.26,215.17,222.19z M227.3,195.49
			c8.4-1.63,14.78-5.22,20.31-10.35c3.33-3.09,5.89-6.76,6.89-11.26c0.54-2.41,0.65-4.95-2.09-6.32
			c-2.26-1.13-13.86,2.11-14.34,4.39C236.3,180.33,230.68,186.89,227.3,195.49z"/>
		
			<linearGradient id="SVGID_00000066495924243762269870000017757464974532726962_" gradientUnits="userSpaceOnUse" x1="189.9857" y1="112.036" x2="239.6445" y2="112.036">
			<stop  offset="0.0406" style="stop-color:#B9882C"/>
			<stop  offset="0.7496" style="stop-color:#EEA835"/>
			<stop  offset="1" style="stop-color:#BC892C"/>
		</linearGradient>
		<path style="fill:url(#SVGID_00000066495924243762269870000017757464974532726962_);" d="M231.61,89.53
			c1.19-2.01,2.39-4.02,3.58-6.04c0.63-1.07,1.02-2.62,2.59-2.35c1.57,0.28,1.49,1.89,1.62,3.1c0.18,1.62,0.17,3.25,0.24,4.88
			c-5.1,14.16-11.62,27.68-18.8,40.86c-4.27,7.84-10.11,13.94-20.26,12.84c-5.42-0.59-8.91-3.59-10.13-8.87
			c-1.2-5.2-0.15-9.94,3.79-13.79c0.78-0.76,1.81-1.51,2.99-1.03c1.9,0.78,0.73,2.25,0.45,3.33c-0.89,3.42-1.71,6.82-1.47,10.39
			c0.18,2.69,0.68,5.32,3.58,6.36c2.74,0.98,5.1-0.2,7.13-2.02c2.81-2.52,4.93-5.61,6.53-8.95
			C219.59,115.39,225.57,102.44,231.61,89.53z"/>
		
			<linearGradient id="SVGID_00000072262277040306191770000015081639407953884039_" gradientUnits="userSpaceOnUse" x1="265.8605" y1="178.6573" x2="273.1402" y2="178.6573">
			<stop  offset="0.0406" style="stop-color:#B9882C"/>
			<stop  offset="0.7496" style="stop-color:#EEA835"/>
			<stop  offset="1" style="stop-color:#BC892C"/>
		</linearGradient>
		<path style="fill:url(#SVGID_00000072262277040306191770000015081639407953884039_);" d="M273.14,179.01
			c-0.21,2.31-0.68,4.95-3.51,4.69c-2.72-0.25-3.66-2.77-3.76-5.41c-0.08-2.22,0.49-4.64,2.83-4.7
			C271.85,173.51,272.83,176.21,273.14,179.01z"/>
		<path class="st1" d="M235.64,133.87c1.98-9.56,7.13-18.26,15.65-24.94c1.06-0.83,2.29-1.44,3.55-0.5
			c1.03,0.76,0.93,2.01,0.64,3.07c-2.69,9.79-7.18,18.61-14.43,25.86c-1.01,1.01-2.4,2.02-3.97,1.41
			C235.35,138.1,235.67,136.39,235.64,133.87z"/>
		<path class="st1" d="M383.8,107.38c2.12-0.17,2.01,1.08,2,2.17c-0.02,3.43-6.12,11.99-9.36,13.14c-1.24,0.44-2.6,0.79-3.71-0.13
			c-1.4-1.16-0.29-2.36,0.28-3.43c2.01-3.77,4.41-7.26,7.82-9.92C381.84,108.44,383,107.87,383.8,107.38z"/>
		<path class="st1" d="M307.85,150.98c-2.63,7.28-6.05,14.09-11.99,19.39c0.05-8.75,4.26-15.19,11.35-20.02
			C307.42,150.57,307.63,150.78,307.85,150.98z"/>
		<path class="st9" d="M307.21,150.35c0.16-0.46,0.39-0.95,0.94-0.55c0.12,0.09-0.19,0.77-0.3,1.18
			C307.63,150.78,307.42,150.57,307.21,150.35z"/>
		<path class="st1" d="M398.77,182.63c-6.84,11.61-9.48,24.31-17.8,34.19c-1.54,1.83-3.9,3.65-6.27,2.5
			c-2.25-1.09-2.49-4.01-2.06-6.34c2-10.59,7.41-19.78,13.28-28.49C388.09,181.26,393.58,183.38,398.77,182.63z"/>
		<path class="st1" d="M358.88,187.46c2.11-0.32,2.27,0.66,2.24,1.92c-0.08,3.33-6.18,12.13-9.3,13.28
			c-1.24,0.46-2.6,0.78-3.73-0.03c-1.5-1.07-0.41-2.33,0.14-3.4c2.03-3.99,4.71-7.5,8.23-10.3
			C357.31,188.25,358.33,187.79,358.88,187.46z"/>
		<path class="st1" d="M227.3,195.49c3.38-8.61,9-15.16,10.78-23.54c0.48-2.27,12.08-5.52,14.34-4.39c2.74,1.37,2.63,3.9,2.09,6.32
			c-1,4.5-3.57,8.18-6.89,11.26C242.08,190.27,235.71,193.86,227.3,195.49z"/>
	</g>
	<path class="st10" d="M453.47,443.08H154.9c-6.6,0-12-5.4-12-12v-42.47c0-6.6,5.4-12,12-12h298.57c6.6,0,12,5.4,12,12v42.47
		C465.47,437.68,460.07,443.08,453.47,443.08z"/>
	<path class="st11" d="M453.47,544.64H154.9c-6.6,0-12-5.4-12-12v-42.47c0-6.6,5.4-12,12-12h298.57c6.6,0,12,5.4,12,12v42.47
		C465.47,539.24,460.07,544.64,453.47,544.64z"/>
	<path class="st12" d="M453.47,645.44H154.9c-6.6,0-12-5.4-12-12v-42.47c0-6.6,5.4-12,12-12h298.57c6.6,0,12,5.4,12,12v42.47
		C465.47,640.04,460.07,645.44,453.47,645.44z"/>
	<g>
		
			<linearGradient id="SVGID_00000081635578707781420050000013769748150770451096_" gradientUnits="userSpaceOnUse" x1="158.3736" y1="409.8463" x2="194.4393" y2="409.8463">
			<stop  offset="0.0406" style="stop-color:#B9882C"/>
			<stop  offset="0.7496" style="stop-color:#EEA835"/>
			<stop  offset="1" style="stop-color:#BC892C"/>
		</linearGradient>
		<path style="fill:url(#SVGID_00000081635578707781420050000013769748150770451096_);" d="M194.44,410.39
			c-0.05,2.39-0.07,4.79-0.16,7.18c-0.08,2.05-0.53,4.02-1.67,5.77c-1.49,2.29-3.63,3.6-6.28,4.14c-1.53,0.31-3.07,0.34-4.62,0.36
			c-2.61,0.02-5.21,0.05-7.82,0.02c-2.02-0.02-4.04-0.02-6.05-0.19c-3.36-0.28-6.11-1.71-7.88-4.7c-0.84-1.42-1.26-3-1.38-4.64
			c-0.31-4.17-0.16-8.35-0.17-12.53c0-1.46,0.05-2.93,0.18-4.39c0.3-3.46,1.72-6.28,4.83-8.06c1.38-0.79,2.9-1.19,4.48-1.31
			c4.28-0.32,8.56-0.16,12.85-0.17c1.58,0,3.17,0.06,4.74,0.25c4.5,0.53,7.66,3.41,8.54,7.77c0.29,1.45,0.34,2.91,0.36,4.37
			c0.02,2.04,0,4.09,0,6.13C194.39,410.39,194.42,410.39,194.44,410.39z M175.88,424.66c0-0.02,0-0.04,0-0.06
			c1.33,0,2.65,0.02,3.98,0c1.58-0.03,3.17-0.07,4.75-0.15c1.08-0.06,2.13-0.33,3.09-0.86c2.15-1.18,3.09-3.12,3.27-5.45
			c0.14-1.87,0.17-3.75,0.19-5.62c0.02-2.48,0.02-4.95-0.03-7.43c-0.03-1.46-0.09-2.93-0.3-4.38c-0.39-2.76-2.35-4.69-5.08-5.22
			c-1.58-0.31-3.17-0.3-4.77-0.33c-3.03-0.04-6.06-0.04-9.09,0c-1.46,0.02-2.93,0.09-4.38,0.27c-3.04,0.37-5.15,2.46-5.54,5.49
			c-0.18,1.41-0.26,2.85-0.27,4.28c-0.03,3.39-0.02,6.79,0.03,10.18c0.02,1.3,0.1,2.61,0.33,3.88c0.37,2.1,1.54,3.67,3.52,4.56
			c1.1,0.49,2.27,0.67,3.46,0.71C171.31,424.58,173.59,424.61,175.88,424.66z"/>
		
			<linearGradient id="SVGID_00000091008393117630219100000001371940875441695118_" gradientUnits="userSpaceOnUse" x1="167.1399" y1="409.857" x2="185.6594" y2="409.857">
			<stop  offset="0.0406" style="stop-color:#B9882C"/>
			<stop  offset="0.7496" style="stop-color:#EEA835"/>
			<stop  offset="1" style="stop-color:#BC892C"/>
		</linearGradient>
		<path style="fill:url(#SVGID_00000091008393117630219100000001371940875441695118_);" d="M185.66,409.86
			c0,5.12-4.14,9.27-9.26,9.26c-5.33-0.01-9.32-4.41-9.26-9.37c0.06-5.06,4.31-9.25,9.47-9.16
			C181.55,400.69,185.66,404.82,185.66,409.86z M182.38,409.87c0-3.32-2.68-6-5.98-6c-3.29,0-6,2.71-6,6c0,3.27,2.7,5.98,5.95,5.98
			C179.71,415.85,182.38,413.2,182.38,409.87z"/>
		
			<linearGradient id="SVGID_00000142169417231458149520000017400926010732870064_" gradientUnits="userSpaceOnUse" x1="183.8565" y1="400.2351" x2="188.1705" y2="400.2351">
			<stop  offset="0.0406" style="stop-color:#B9882C"/>
			<stop  offset="0.7496" style="stop-color:#EEA835"/>
			<stop  offset="1" style="stop-color:#BC892C"/>
		</linearGradient>
		<path style="fill:url(#SVGID_00000142169417231458149520000017400926010732870064_);" d="M185.99,402.39
			c-1.22-0.01-2.15-0.95-2.13-2.18c0.01-1.21,0.97-2.15,2.18-2.14c1.22,0.01,2.14,0.96,2.13,2.19
			C188.16,401.49,187.23,402.4,185.99,402.39z"/>
	</g>
	<g>
		
			<linearGradient id="SVGID_00000011721797734455659070000003039427316537805720_" gradientUnits="userSpaceOnUse" x1="155.6968" y1="612.2621" x2="197.4999" y2="612.2621">
			<stop  offset="0.0406" style="stop-color:#B9882C"/>
			<stop  offset="0.7496" style="stop-color:#EEA835"/>
			<stop  offset="1" style="stop-color:#BC892C"/>
		</linearGradient>
		<path style="fill:url(#SVGID_00000011721797734455659070000003039427316537805720_);" d="M176.58,627.33c-5.1,0-10.21,0-15.31,0
			c-2.53,0-4.53-1.36-5.27-3.64c-0.18-0.57-0.28-1.19-0.28-1.79c-0.02-6.43-0.03-12.86,0-19.28c0.01-2.77,1.77-4.85,4.42-5.34
			c0.38-0.07,0.79-0.08,1.18-0.08c10.21,0,20.42-0.01,30.63,0c2.85,0,5.01,1.76,5.48,4.47c0.07,0.39,0.07,0.79,0.07,1.18
			c0,6.31,0.01,12.61,0,18.92c0,2.67-1.52,4.73-3.98,5.38c-0.53,0.14-1.11,0.18-1.67,0.18
			C186.76,627.33,181.67,627.33,176.58,627.33z M158.78,601.75c0.09,0.07,0.17,0.15,0.27,0.23c5.01,3.84,10.03,7.69,15.05,11.52
			c1.78,1.36,3.83,1.35,5.59-0.02c4.85-3.78,9.69-7.58,14.54-11.37c0.27-0.21,0.27-0.38,0.13-0.64c-0.52-0.95-1.31-1.37-2.39-1.36
			c-7.44,0.01-14.89,0.01-22.33,0.01c-2.86,0-5.71-0.01-8.57,0C159.95,600.12,159.07,600.76,158.78,601.75z M193.72,623.83
			c-3.52-3.16-7.01-6.28-10.5-9.41c-0.54,0.42-1.05,0.82-1.57,1.22c-2.98,2.35-6.46,2.37-9.47,0.07c-0.66-0.51-1.32-1.01-2-1.53
			c-3.55,3.25-7.07,6.47-10.61,9.72c0.54,0.45,1.12,0.52,1.74,0.52c6.35-0.01,12.7,0,19.05,0c3.87,0,7.75,0,11.62,0
			C192.61,624.42,193.18,624.3,193.72,623.83z M158.64,620.8c3.11-2.85,6.14-5.62,9.2-8.43c-3.08-2.36-6.11-4.68-9.2-7.04
			C158.64,610.52,158.64,615.6,158.64,620.8z M194.55,620.66c0-5.09,0-10.06,0-15.12c-3.03,2.37-6,4.7-9.01,7.05
			C188.55,615.28,191.52,617.94,194.55,620.66z"/>
	</g>
	
		<linearGradient id="SVGID_00000007397761110313146920000009525408283419440808_" gradientUnits="userSpaceOnUse" x1="155.5198" y1="512.152" x2="198.1751" y2="512.152">
		<stop  offset="0.0406" style="stop-color:#B9882C"/>
		<stop  offset="0.7496" style="stop-color:#EEA835"/>
		<stop  offset="1" style="stop-color:#BC892C"/>
	</linearGradient>
	<path style="fill:url(#SVGID_00000007397761110313146920000009525408283419440808_);" d="M155.52,512.17
		c-0.01-11.79,9.5-21.31,21.3-21.34c11.8-0.03,21.37,9.53,21.36,21.35c-0.01,11.79-9.54,21.31-21.33,21.31
		C165.06,533.48,155.53,523.95,155.52,512.17z M166.82,502.94c-1.85-0.71-3.76-1.44-5.72-2.19c-2.22,3.05-3.46,6.51-3.67,10.41
		c2.86,0,5.66,0,8.38,0C166.15,508.37,166.49,505.64,166.82,502.94z M186.93,502.93c0.26,2.63,0.54,5.25,0.78,7.87
		c0.04,0.47,0.34,0.4,0.62,0.4c2.46,0,4.91,0,7.37,0c0.18,0,0.36-0.03,0.57-0.05c-0.23-3.9-1.46-7.37-3.67-10.39
		C190.61,501.51,188.72,502.24,186.93,502.93z M157.43,513.15c0.24,3.92,1.47,7.39,3.68,10.4c2.01-0.77,3.91-1.5,5.72-2.19
		c-0.34-2.73-0.67-5.44-1.01-8.21C163.09,513.15,160.29,513.15,157.43,513.15z M187.89,513.14c-0.35,2.83-0.69,5.56-1.02,8.21
		c1.87,0.72,3.76,1.45,5.73,2.2c2.21-3.05,3.46-6.52,3.66-10.41C193.39,513.14,190.6,513.14,187.89,513.14z M175.85,511.16
		c0-2.37,0-4.71,0-6.98c-2.36-0.26-4.67-0.51-7.01-0.76c-0.58,2.53-0.95,5.11-0.96,7.74C170.58,511.16,173.2,511.16,175.85,511.16z
		 M168.71,520.9c2.51-0.27,4.83-0.53,7.14-0.78c0-2.32,0-4.65,0-6.96c-2.68,0-5.32,0-8.13,0
		C168.05,515.81,168.38,518.38,168.71,520.9z M184.86,520.89c0.59-2.5,0.94-5.08,0.97-7.73c-2.71,0-5.34,0-7.99,0
		c0,2.37,0,4.69,0,6.97C180.19,520.38,182.5,520.63,184.86,520.89z M185.98,511.17c-0.34-2.67-0.67-5.24-0.99-7.77
		c-2.5,0.27-4.83,0.53-7.14,0.78c0,2.32,0,4.64,0,6.99C180.52,511.17,183.13,511.17,185.98,511.17z M169.3,501.57
		c2.28,0.24,4.41,0.46,6.54,0.68c0-3.23,0-6.3,0-9.52C171.97,494.47,170.67,497.91,169.3,501.57z M177.85,492.86
		c0,3.15,0,6.21,0,9.41c2.19-0.24,4.32-0.47,6.51-0.71c-0.91-2.73-1.95-5.16-3.86-7.11C179.77,493.71,178.94,493.12,177.85,492.86z
		 M175.84,531.61c0-3.31,0-6.38,0-9.57c-2.18,0.23-4.29,0.46-6.51,0.7c0.99,2.95,2.1,5.65,4.44,7.61
		C174.35,530.83,175.07,531.15,175.84,531.61z M177.83,531.4c2.58-0.38,5.4-4.49,6.44-8.68c-2.15-0.23-4.28-0.45-6.44-0.68
		C177.83,525.28,177.83,528.34,177.83,531.4z M191.37,499.23c-2.58-2.82-5.52-4.69-9.18-5.77c2.03,2.3,3.14,4.89,4.07,7.68
		C187.97,500.5,189.61,499.89,191.37,499.23z M182.18,530.85c3.66-1.11,6.61-2.96,9.18-5.79c-1.78-0.66-3.43-1.27-5.12-1.9
		C185.33,526.01,184.19,528.56,182.18,530.85z M167.45,501.13c0.91-2.8,2.04-5.38,4.05-7.67c-3.64,1.09-6.59,2.95-9.17,5.77
		C164.11,499.89,165.75,500.5,167.45,501.13z M171.27,530.78c-0.73-1.17-1.54-2.31-2.18-3.55c-0.65-1.26-1.13-2.61-1.73-4.03
		c-1.62,0.6-3.28,1.22-5.04,1.88C164.91,527.89,167.86,529.76,171.27,530.78z"/>
</g>
<g id="Type">
	<rect x="208.95" y="279.71" class="st18" width="190.46" height="82.82"/>
	<text transform="matrix(1 0 0 1 228.8207 306.9945)"><tspan x="0" y="0" class="st19 st20 st21">Graphic</tspan><tspan x="-9.63" y="43.2" class="st19 st20 st21">Designer</tspan></text>
	<rect x="214.21" y="401.27" class="st18" width="154.48" height="19.46"/>
	<text transform="matrix(1 0 0 1 219.3582 412.6357)" class="st22 st20 st23">designs.by.janyce</text>
	<rect x="213.38" y="502.04" class="st18" width="160.29" height="19.08"/>
	<text transform="matrix(1 0 0 1 218.8976 513.4113)" class="st22 st20 st23">janycepickett.com</text>
	<rect x="205.39" y="605" class="st18" width="252.91" height="16.52"/>
	<text transform="matrix(1 0 0 1 208.6885 616.3682)" class="st22 st20 st23">janycepickettwork@gmail.com</text>
</g>
<g id="Layer_4">
	<rect x="152.98" y="66.11" class="st24" width="303.98" height="197.63"/>
	<rect x="210.17" y="275.79" class="st24" width="185.6" height="89.29"/>
	<rect x="151.98" y="387.15" class="st24" width="49.16" height="47.15"/>
	<rect x="215.18" y="393.16" class="st24" width="156.5" height="32.1"/>
	<rect x="150.98" y="484.46" class="st24" width="53.17" height="53.17"/>
	<rect x="215.18" y="496.5" class="st24" width="163.53" height="30.1"/>
	<rect x="147.97" y="590.8" class="st24" width="56.18" height="43.14"/>
	<rect x="207.16" y="595.82" class="st24" width="250.81" height="30.1"/>
	<rect x="10.53" y="12.94" class="st24" width="585.88" height="764.45"/>
</g>
<g id="Html">
</g>
</svg>
