<?xml version="1.0" encoding="utf-8"?>
<!-- Generator: Adobe Illustrator 26.0.2, SVG Export Plug-In . SVG Version: 6.00 Build 0)  -->
<svg version="1.1" id="mail-logo" xmlns="http://www.w3.org/2000/svg" xmlns:xlink="http://www.w3.org/1999/xlink" x="0px" y="0px"
	 viewBox="0 0 250 180.5" style="enable-background:new 0 0 250 180.5;" xml:space="preserve">
<g>
	<path d="M124.89,180.22c-30.53,0-61.1,0.04-91.63,0c-15.19-0.04-27.11-8.19-31.52-21.78c-1.11-3.38-1.67-7.12-1.67-10.69
		c-0.12-38.48-0.2-76.92-0.04-115.4C0.11,15.8,10.6,3.36,26.46,0.38c2.31-0.44,4.69-0.48,7.04-0.48c61.1-0.04,122.16-0.04,183.26,0
		c17.09,0,29.97,10.53,32.84,26.75c0.4,2.31,0.44,4.69,0.44,7.08c0.04,37.73,0.04,75.45,0,113.22
		c-0.04,16.02-9.06,28.26-23.85,32.16c-3.22,0.83-6.64,1.03-9.98,1.07C185.79,180.22,155.34,180.22,124.89,180.22z M18.39,27.13
		c0.52,0.44,1.03,0.91,1.63,1.35c30.01,22.98,59.99,45.99,90.04,68.97c10.65,8.11,22.94,8.07,33.43-0.12
		c29.02-22.66,57.96-45.4,86.98-68.02c1.63-1.27,1.63-2.31,0.76-3.86c-3.1-5.68-7.83-8.19-14.27-8.15
		c-44.56,0.08-89.09,0.04-133.65,0.04c-17.09,0-34.19-0.04-51.28,0C25.43,17.39,20.14,21.25,18.39,27.13z M227.45,159.27
		c-21.11-18.92-41.94-37.57-62.85-56.33c-3.22,2.5-6.32,4.89-9.38,7.31c-17.85,14.03-38.68,14.19-56.69,0.44
		c-3.98-3.02-7.91-6.08-11.97-9.14c-21.19,19.4-42.26,38.72-63.49,58.12c3.22,2.66,6.72,3.1,10.42,3.1c38-0.04,76.01,0,114.01,0
		c23.18,0,46.35,0,69.57,0C220.81,162.81,224.27,162.09,227.45,159.27z M17.56,141.14c18.6-17.05,36.73-33.63,55.02-50.41
		C54.13,76.58,36,62.75,17.56,48.6C17.56,79.65,17.56,110.06,17.56,141.14z M232.46,140.35c0-30.45,0-60.19,0-90.52
		c-18.17,14.19-35.94,28.11-53.91,42.18C196.53,108.15,214.3,124.05,232.46,140.35z"/>
</g>
</svg>
