<?xml version="1.0" encoding="utf-8"?>
<!-- Generator: Adobe Illustrator 26.0.2, SVG Export Plug-In . SVG Version: 6.00 Build 0)  -->
<svg version="1.1" id="website-logo" xmlns="http://www.w3.org/2000/svg" xmlns:xlink="http://www.w3.org/1999/xlink" x="0px"
	 y="0px" viewBox="0 0 250 250" style="enable-background:new 0 0 250 250;" xml:space="preserve">
<style type="text/css">
	.st0{fill:#231F20;}
</style>
<path class="st0" d="M-0.18,125.08c-0.04-69.21,55.74-125.1,125-125.26c69.27-0.16,125.42,55.96,125.35,125.28
	c-0.07,69.21-55.98,125.08-125.19,125.08C55.81,250.18-0.13,194.27-0.18,125.08z M66.17,70.96c-10.85-4.16-22.05-8.45-33.58-12.88
	c-13.01,17.88-20.28,38.23-21.54,61.08c16.78,0,33.21,0,49.18,0C62.24,102.83,64.22,86.77,66.17,70.96z M184.18,70.87
	c1.55,15.41,3.15,30.8,4.59,46.21c0.26,2.74,1.97,2.33,3.64,2.33c14.42,0.02,28.83,0.02,43.25-0.01c1.05,0,2.1-0.19,3.32-0.3
	c-1.37-22.9-8.56-43.27-21.57-61C205.8,62.56,194.7,66.83,184.18,70.87z M11.02,130.85c1.39,23.03,8.61,43.4,21.58,61.04
	c11.78-4.5,22.96-8.78,33.55-12.83c-1.96-15.99-3.93-31.95-5.93-48.21C44.28,130.85,27.85,130.85,11.02,130.85z M189.81,130.8
	c-2.06,16.6-4.05,32.63-5.98,48.21c10.98,4.22,22.07,8.48,33.6,12.91c12.97-17.91,20.33-38.29,21.49-61.13
	C222.09,130.8,205.74,130.8,189.81,130.8z M119.13,119.18c0-13.94,0-27.64,0-40.97c-13.87-1.51-27.41-2.98-41.16-4.48
	c-3.41,14.88-5.59,30-5.64,45.45C88.23,119.18,103.6,119.18,119.13,119.18z M77.23,176.38c14.73-1.61,28.36-3.1,41.89-4.58
	c0-13.64,0-27.26,0-40.85c-15.75,0-31.2,0-47.73,0C73.39,146.51,75.33,161.58,77.23,176.38z M172.01,176.27
	c3.46-14.7,5.54-29.84,5.68-45.38c-15.88,0-31.33,0-46.89,0c0,13.91,0,27.54,0,40.9C144.61,173.29,158.16,174.77,172.01,176.27z
	 M178.59,119.22c-2.01-15.69-3.94-30.77-5.83-45.58c-14.7,1.61-28.34,3.1-41.89,4.58c0,13.62,0,27.25,0,41
	C146.53,119.22,161.89,119.22,178.59,119.22z M80.68,62.9c13.39,1.4,25.88,2.71,38.4,4.02c0-18.99,0-36.97,0-55.9
	C96.35,21.21,88.73,41.42,80.68,62.9z M130.9,11.76c0,18.47,0,36.47,0,55.24c12.87-1.4,25.33-2.76,38.19-4.16
	c-5.32-16.01-11.42-30.3-22.69-41.73C142.14,16.77,137.28,13.31,130.9,11.76z M119.1,239.22c0-19.44,0-37.44,0-56.19
	c-12.8,1.37-25.2,2.69-38.21,4.08c5.84,17.3,12.32,33.15,26.06,44.67C110.34,234.62,114.55,236.48,119.1,239.22z M130.79,238
	c15.16-2.2,31.69-26.38,37.82-50.95c-12.63-1.33-25.14-2.65-37.82-3.98C130.79,202.03,130.79,220,130.79,238z M210.21,49.16
	c-15.12-16.56-32.41-27.51-53.86-33.89c11.9,13.5,18.46,28.68,23.87,45.08C190.27,56.61,199.89,53.02,210.21,49.16z M156.33,234.77
	c21.5-6.51,38.82-17.38,53.86-33.96c-10.43-3.87-20.13-7.47-30.06-11.16C174.76,206.32,168.08,221.33,156.33,234.77z M69.84,60.34
	C75.18,43.9,81.83,28.76,93.63,15.3c-21.39,6.37-38.7,17.28-53.82,33.89C50.22,53.05,59.86,56.63,69.84,60.34z M92.27,234.31
	c-4.27-6.86-9.04-13.58-12.79-20.83c-3.81-7.38-6.62-15.3-10.14-23.63c-9.52,3.55-19.23,7.17-29.55,11.02
	C54.95,217.38,72.23,228.34,92.27,234.31z"/>
</svg>
